<?xml version="1.0" standalone="no"?>
<!DOCTYPE svg PUBLIC "-//W3C//DTD SVG 20010904//EN"
 "http://www.w3.org/TR/2001/REC-SVG-20010904/DTD/svg10.dtd">
<svg version="1.0" xmlns="http://www.w3.org/2000/svg"
 width="256.000000pt" height="144.000000pt" viewBox="0 0 256.000000 144.000000"
 preserveAspectRatio="xMidYMid meet">

<g transform="translate(0.000000,144.000000) scale(0.100000,-0.100000)"
fill="#000000" stroke="none">
<path d="M100 780 l0 -290 50 0 c43 0 50 3 50 19 0 18 3 18 47 -7 84 -47 218
-30 274 34 78 89 73 242 -10 317 -21 19 -55 40 -76 47 -54 18 -155 8 -199 -20
l-36 -22 0 106 0 106 -50 0 -50 0 0 -290z m343 0 c22 -24 27 -40 27 -80 0 -89
-37 -130 -117 -130 -47 0 -81 22 -99 66 -18 44 -18 78 3 121 33 69 133 82 186
23z"/>
<path d="M1087 1064 c-4 -4 -7 -140 -7 -301 l0 -294 53 3 52 3 0 295 0 295
-45 3 c-25 2 -49 0 -53 -4z"/>
<path d="M1560 965 l0 -105 -32 20 c-39 24 -132 27 -181 7 -87 -37 -142 -155
-118 -254 29 -117 101 -168 226 -161 62 3 80 8 116 33 23 17 53 50 66 74 22
42 23 53 23 268 l0 223 -50 0 -50 0 0 -105z m-59 -171 c76 -39 76 -179 0 -218
-51 -27 -98 -21 -137 18 -30 30 -34 40 -34 89 0 40 5 61 21 81 37 47 96 59
150 30z"/>
<path d="M725 881 c-76 -35 -115 -102 -115 -196 0 -130 83 -216 209 -218 76 0
120 16 164 61 46 47 57 78 57 158 0 98 -41 164 -122 199 -51 21 -143 19 -193
-4z m163 -91 c38 -23 52 -54 52 -117 0 -38 -5 -50 -34 -79 -29 -29 -41 -34
-80 -34 -64 0 -106 38 -113 103 -7 59 11 104 51 128 40 24 83 24 124 -1z"/>
<path d="M1820 884 c-80 -35 -120 -101 -120 -199 0 -98 49 -175 129 -207 35
-14 139 -13 176 2 36 14 82 55 101 93 l15 27 -57 0 c-41 0 -63 -5 -81 -20 -37
-29 -103 -27 -141 5 -16 14 -32 34 -35 45 -5 19 -1 20 159 20 l164 0 0 48 c-1
85 -46 155 -122 187 -47 19 -142 19 -188 -1z m165 -98 c14 -9 25 -23 25 -31 0
-12 -18 -15 -95 -15 -78 0 -95 3 -95 15 0 8 15 24 33 36 37 23 92 21 132 -5z"/>
<path d="M2275 881 c-86 -39 -104 -87 -105 -273 l0 -138 50 0 50 0 0 118 c0
143 11 187 50 207 16 8 36 15 45 15 11 0 15 11 15 45 0 44 -1 45 -32 45 -18 0
-51 -9 -73 -19z"/>
<path d="M2357 572 c-21 -23 -22 -75 -2 -92 22 -18 77 -15 92 6 19 26 16 68
-5 87 -24 22 -65 21 -85 -1z"/>
</g>
</svg>
