<svg id="Ebene_1" data-name="Ebene 1" xmlns="http://www.w3.org/2000/svg" viewBox="0 0 400 145.508">
  <g>
    <path id="logoMark" d="M.0027,43.604a40.5458,40.5458,0,0,1,81.0916,0V76.9664a21.4069,21.4069,0,0,0,42.8137,0l.02-48.85a5.9185,5.9185,0,0,0-11.837,0c0,.197-.018,48.8505-.018,48.8505a9.5722,9.5722,0,1,1-19.1443,0l.023-48.85a25.0577,25.0577,0,0,1,50.1153,0c0,.197-.02,48.85-.02,48.85a40.5459,40.5459,0,0,1-81.0918,0V43.604a21.4067,21.4067,0,0,0-42.8133,0l.0027,48.8506h-.0027a5.9185,5.9185,0,0,0,11.837,0h-.0027V43.604a9.5724,9.5724,0,0,1,9.5722-9.572h0a9.5724,9.5724,0,0,1,9.5722,9.572V92.4546h-.0027a25.0577,25.0577,0,0,1-50.1154,0H0Z" style="fill: #212121;fill-rule: evenodd"/>
    <g id="type">
      <path id="type_PathItem_" data-name="type &lt;PathItem&gt;" d="M302.948,24.341a11.8381,11.8381,0,0,1-12.17-12.171,11.8869,11.8869,0,0,1,3.383-8.788,13.1073,13.1073,0,0,1,17.575,0,11.8869,11.8869,0,0,1,3.383,8.788,11.84,11.84,0,0,1-12.171,12.171Z" style="fill: #212121;fill-rule: evenodd"/>
      <path id="type_PathItem_2" data-name="type &lt;PathItem&gt;" d="M209.966,117.0543a46.72,46.72,0,0,1-21.53-4.8242,34.5691,34.5691,0,0,1-14.361-13.4909,39.1811,39.1811,0,0,1-5.053-20.0709V41.743a39.1792,39.1792,0,0,1,5.053-20.071,34.0557,34.0557,0,0,1,14.359-13.41,47.5309,47.5309,0,0,1,21.532-4.746c10.791.096,16.429,2.109,22.437,5.135a33.9743,33.9743,0,0,1,13.613,13.021,35.2965,35.2965,0,0,1,2.34,4.833,10.6922,10.6922,0,0,1-9.964,14.567c-.216.008-.431.008-.645.008a9.7851,9.7851,0,0,1-9.328-6.828,16.7,16.7,0,0,0-4.305-7.062c-3.513-3.459-8.214-5.247-14.148-5.247-5.816,0-10.476,1.788-13.989,5.247q-5.3205,5.2395-5.331,13.913V79.6274q0,8.5164,5.331,13.7538c3.513,3.4588,8.254,5.2284,13.989,5.2466,5.91.0187,10.635-1.7878,14.148-5.2466a17.0958,17.0958,0,0,0,4.195-6.5939,10.5941,10.5941,0,0,1,10-7.0963v-.04a10.6711,10.6711,0,0,1,9.898,14.6578,37.0562,37.0562,0,0,1-2.191,4.43,34.62,34.62,0,0,1-13.617,13.0969C226.443,114.99,219.397,117.0543,209.966,117.0543Z" style="fill: #212121;fill-rule: evenodd"/>
      <path id="type_PathItem_3" data-name="type &lt;PathItem&gt;" d="M269.166,4.795h.266a10.679,10.679,0,0,1,10.679,10.679v89.6236a10.678,10.678,0,0,1-10.678,10.678h-.2667a10.6783,10.6783,0,0,1-10.6783-10.6783V15.473A10.678,10.678,0,0,1,269.166,4.795Z" style="fill: #212121"/>
      <path id="type_PathItem_4" data-name="type &lt;PathItem&gt;" d="M302.575,33.249h.267A10.678,10.678,0,0,1,313.52,43.927v61.1706a10.678,10.678,0,0,1-10.678,10.678h-.2667a10.6783,10.6783,0,0,1-10.6783-10.6783V43.927A10.678,10.678,0,0,1,302.575,33.249Z" style="fill: #212121"/>
      <path id="type_CompoundPathItem_" data-name="type &lt;CompoundPathItem&gt;" d="M373.509,92.1831q4.0545-6.3263,4.068-17.1914,0-10.21-3.413-16.2062-3.804-7.1049-12.23-7.11-7.6185,0-11.433,7.1131-3.396,5.8295-3.412,16.3633,0,10.86,3.579,16.8557a12.2436,12.2436,0,0,0,11.266,6.6207A13.0227,13.0227,0,0,0,373.509,92.1831Zm23.635-35.9148.005.0133A57.2226,57.2226,0,0,1,400,75.3114a61.4792,61.4792,0,0,1-3.012,19.8305,33.9084,33.9084,0,0,1-11.433,16.011q-7.8,5.9091-19.305,5.9015a23.1074,23.1074,0,0,1-18.39-8.5207.5054.5054,0,0,0-.921.2875c-.01,4.3607-.01,16.8148-.01,26.0084a10.6773,10.6773,0,0,1-10.678,10.6784h-.267A10.6773,10.6773,0,0,1,325.306,134.83V44.053A10.8039,10.8039,0,0,1,336.11,33.249h.015a10.8026,10.8026,0,0,1,10.804,10.804v.083a.5254.5254,0,0,0,1.006.211c1.848-4.109,6.781-11.098,18.954-11.098a30.1548,30.1548,0,0,1,18.825,6.06Q393.679,45.3825,397.144,56.2683Z" style="fill: #212121"/>
    </g>
  </g>
</svg>
