<svg id="Layer_1" data-name="Layer 1" xmlns="http://www.w3.org/2000/svg" viewBox="0 0 1920 723.94"><defs><style>.cls-1{fill:#fff;}</style></defs><path class="cls-1" d="M.75,26.75C.75,23,4.52,23,4.52,23S89-3.4,202.75.37C318.82,4.13,418.32,62.17,418.32,173c0,80.65-49,194.46-252.49,186.16v36.18c3.76,119.09,56.51,93.46,49,114.57-9,27.13-55.78,61-101,61C52.76,570.93,0,532.49,0,439Zm165.08,55V281.5c60.29,0,95.72-55,95.72-110,0-56.53-39.21-98.73-95.72-89.69"/><path class="cls-1" d="M456.72,26.75H607.46s3.77,0,3,3.77c0,0,.75,319.58.75,371.58,0,119.84,51.25,94.21,44.47,114.56-8.29,24.12-55,53.52-97.23,53.52C497.42,570.18,453,526.46,453,455.61V30.52c0-3.77,3.77-3.77,3.77-3.77"/><path class="cls-1" d="M1035.47,448.83c-8.28,31.66-70.84,120.6-180.89,120.6-113.81,0-205-92-205-205.77,0-110,85.17-205,214.81-205,123.6,0,177.13,77.63,177.13,131.15,0,118.33-137.94,132.65-236.68,116.07,26.39,75.37,126.63,82.9,218.59,31.65,3-2.26,6.77-3,9.8-.75s4.52,5.28,2.25,12.06M798.8,339.54c67.08,6,100.25-18.85,100.25-59.54,0-20.36-16.57-37.69-39.94-36.18a.73.73,0,0,1-.75.75h-2.27A48.86,48.86,0,0,0,838,251.36c-24.88,15.07-36.18,51.25-39.2,88.18"/><path class="cls-1" d="M1513.91,515.15c-8.3,23.37-49,52.76-91.2,52.76-60.31,0-110.8-43.71-110.8-114.56V307.13c0-75.37-76.13-49-76.88,39.94v202c0,3.77-3.77,4.52-3.77,4.52H1080.52a4,4,0,0,1-3-3.77s6-171.85,6-223.85c0-119.84-52-94.21-44.47-114.56,7.55-24.12,48.24-53.52,90.46-53.52,52.76,0,93.45,33.17,103.25,88.18,33.16-64.81,87.43-88.18,127.38-88.18,56.52,0,104,49,104,124.37,0,31.66-.75,61.05-.75,117.57,0,119.85,58,94.22,50.51,115.32"/><path class="cls-1" d="M1711.78,723.94c-110,0-160.54-73.87-169.58-102.51-12.06-36.93-4.53-43.72,3.77-42.21,18.09,3,39.94,60.3,124.36,60.3,60.29,0,95-40.7,97.23-85.93V478.22c-30.91,64.83-82.15,87.43-122.11,87.43-55.77,0-103.25-49-103.25-124.36v-113c0-119.85-57.29-94.22-50.5-114.57,8.28-24.12,49-53.52,91.21-53.52,61,0,110.77,43.72,110.77,114.57v141.7c0,75.36,70.86,49,72.36-39.19V179c0-3.77,3-3.77,3-3.77H1917s3,0,3,3.77c0,0-.2,220.83-.2,321.08,4.53,130.39-68.58,223.86-208,223.86"/></svg>